<?xml version="1.0" encoding="UTF-8"?>
<svg xmlns="http://www.w3.org/2000/svg" xmlns:xlink="http://www.w3.org/1999/xlink" viewBox="0 0 128 128" width="128px" height="128px">
<g id="surface290557718">
<path style=" stroke:none;fill-rule:nonzero;fill:rgb(100%,100%,100%);fill-opacity:1;" d="M 64 16 C 37.492188 16 16 37.492188 16 64 C 16 90.507812 37.492188 112 64 112 C 90.507812 112 112 90.507812 112 64 C 112 37.492188 90.507812 16 64 16 Z M 64 16 "/>
<path style=" stroke:none;fill-rule:nonzero;fill:rgb(22.352941%,71.764708%,100%);fill-opacity:1;" d="M 64 25 C 42.460938 25 25 42.460938 25 64 C 25 85.539062 42.460938 103 64 103 C 85.539062 103 103 85.539062 103 64 C 103 42.460938 85.539062 25 64 25 Z M 64 25 "/>
<path style="fill:none;stroke-width:8.0625;stroke-linecap:butt;stroke-linejoin:miter;stroke:rgb(0%,0%,0%);stroke-opacity:1;stroke-miterlimit:10;" d="M 86 21.5 C 50.380127 21.5 21.5 50.380127 21.5 86 C 21.5 121.619873 50.380127 150.5 86 150.5 C 121.619873 150.5 150.5 121.619873 150.5 86 C 150.5 50.380127 121.619873 21.5 86 21.5 Z M 86 21.5 " transform="matrix(0.744186,0,0,0.744186,0,0)"/>
<path style="fill:none;stroke-width:8.0625;stroke-linecap:round;stroke-linejoin:miter;stroke:rgb(100%,100%,100%);stroke-opacity:1;stroke-miterlimit:10;" d="M 86 56.4375 L 86 115.5625 M 56.4375 86 L 115.5625 86 " transform="matrix(0.744186,0,0,0.744186,0,0)"/>
</g>
</svg>
